<svg xmlns="http://www.w3.org/2000/svg" xmlns:xlink="http://www.w3.org/1999/xlink" version="1.1" width="1000" height="1000" viewBox="0 0 1000 1000" xml:space="preserve">
<desc>Created with Fabric.js 3.5.0</desc>
<defs>
</defs>
<rect x="0" y="0" width="100%" height="100%" fill="#ffffff"/>
<g transform="matrix(1 0 0 1 500 489.5578)" style="" id="780778">
		
<path xml:space="preserve" font-family="Roboto" font-size="273" font-weight="bold" style="stroke: none; stroke-width: 0; stroke-dasharray: none; stroke-linecap: butt; stroke-dashoffset: 0; stroke-linejoin: miter; stroke-miterlimit: 4; is-custom-font: none; font-file-url: none; fill: rgb(255,155,38); fill-rule: nonzero; opacity: 1; white-space: pre;" d="M-259.27 21.11L-219.28 21.11Q-221.55 52.44-242.41 70.43Q-263.27 88.43-297.39 88.43L-297.39 88.43Q-334.72 88.43-356.11 63.30Q-377.51 38.17-377.51-5.68L-377.51-5.68L-377.51-17.55Q-377.51-45.54-367.64-66.87Q-357.78-88.20-339.45-99.59Q-321.12-110.99-296.86-110.99L-296.86-110.99Q-263.27-110.99-242.74-93.00Q-222.21-75.00-219.01-42.48L-219.01-42.48L-259.00-42.48Q-260.47-61.27-269.47-69.74Q-278.47-78.20-296.86-78.20L-296.86-78.20Q-316.86-78.20-326.79-63.87Q-336.72-49.54-336.98-19.41L-336.98-19.41L-336.98-4.75Q-336.98 26.71-327.45 41.24Q-317.92 55.77-297.39 55.77L-297.39 55.77Q-278.87 55.77-269.73 47.30Q-260.60 38.84-259.27 21.11L-259.27 21.11ZM-150.50-108.33L-150.50 85.76L-190.49 85.76L-190.49-108.33L-150.50-108.33ZM44.39-108.33L44.39 85.76L4.40 85.76L-73.45-41.94L-73.45 85.76L-113.44 85.76L-113.44-108.33L-73.45-108.33L4.53 19.64L4.53-108.33L44.39-108.33ZM196.09-29.68L196.09 1.65L119.30 1.65L119.30 53.63L209.42 53.63L209.42 85.76L79.31 85.76L79.31-108.33L209.15-108.33L209.15-75.93L119.30-75.93L119.30-29.68L196.09-29.68ZM265.94-108.33L302.33-41.41L338.72-108.33L384.71-108.33L328.19-12.08L386.17 85.76L339.65 85.76L302.33 17.78L265.00 85.76L218.48 85.76L276.47-12.08L219.95-108.33L265.94-108.33Z"/></g>
<g transform="matrix(1 0 0 1 500 612.1628)" style="" id="438747">
		
<path xml:space="preserve" font-family="Roboto" font-size="56" font-weight="bold" style="stroke: none; stroke-width: 0; stroke-dasharray: none; stroke-linecap: butt; stroke-dashoffset: 0; stroke-linejoin: miter; stroke-miterlimit: 4; is-custom-font: none; font-file-url: none; fill: rgb(59,57,57); fill-rule: nonzero; opacity: 1; white-space: pre;" d="M-256.69 3.56L-263.88 3.56L-263.88 17.59L-272.08 17.59L-272.08-22.22L-256.55-22.22Q-252.07-22.22-248.66-20.58Q-245.26-18.94-243.43-15.92Q-241.60-12.90-241.60-9.04L-241.60-9.04Q-241.60-3.19-245.60 0.19Q-249.61 3.56-256.69 3.56L-256.69 3.56ZM-263.88-15.58L-263.88-3.08L-256.55-3.08Q-253.30-3.08-251.59-4.61Q-249.88-6.14-249.88-8.99L-249.88-8.99Q-249.88-11.91-251.60-13.72Q-253.33-15.52-256.36-15.58L-256.36-15.58L-263.88-15.58ZM-219.75-12.19L-219.86-4.58Q-221.47-4.80-222.70-4.80L-222.70-4.80Q-227.19-4.80-228.58-1.77L-228.58-1.77L-228.58 17.59L-236.48 17.59L-236.48-11.99L-229.02-11.99L-228.80-8.47Q-226.42-12.54-222.21-12.54L-222.21-12.54Q-220.90-12.54-219.75-12.19L-219.75-12.19ZM-207.72-11.99L-207.72 17.59L-215.65 17.59L-215.65-11.99L-207.72-11.99ZM-216.11-19.65L-216.11-19.65Q-216.11-21.43-214.92-22.58Q-213.73-23.72-211.68-23.72L-211.68-23.72Q-209.66-23.72-208.46-22.58Q-207.25-21.43-207.25-19.65L-207.25-19.65Q-207.25-17.85-208.47-16.70Q-209.69-15.55-211.68-15.55Q-213.68-15.55-214.89-16.70Q-216.11-17.85-216.11-19.65ZM-195.63-11.99L-190.13 7.94L-184.64-11.99L-176.38-11.99L-186.36 17.59L-193.91 17.59L-203.89-11.99L-195.63-11.99ZM-148.19 17.59L-156.17 17.59Q-156.72 16.53-156.97 14.94L-156.97 14.94Q-159.84 18.14-164.43 18.14L-164.43 18.14Q-168.78 18.14-171.64 15.62Q-174.49 13.11-174.49 9.28L-174.49 9.28Q-174.49 4.58-171.01 2.06Q-167.52-0.46-160.93-0.48L-160.93-0.48L-157.29-0.48L-157.29-2.18Q-157.29-4.23-158.35-5.46Q-159.40-6.69-161.67-6.69L-161.67-6.69Q-163.67-6.69-164.80-5.73Q-165.94-4.78-165.94-3.11L-165.94-3.11L-173.84-3.11Q-173.84-5.68-172.25-7.87Q-170.67-10.05-167.77-11.30Q-164.87-12.54-161.26-12.54L-161.26-12.54Q-155.79-12.54-152.58-9.79Q-149.37-7.04-149.37-2.07L-149.37-2.07L-149.37 10.76Q-149.34 14.97-148.19 17.13L-148.19 17.13L-148.19 17.59ZM-162.71 12.10L-162.71 12.10Q-160.96 12.10-159.48 11.32Q-158.01 10.54-157.29 9.22L-157.29 9.22L-157.29 4.14L-160.25 4.14Q-166.18 4.14-166.56 8.24L-166.56 8.24L-166.59 8.71Q-166.59 10.18-165.55 11.14Q-164.51 12.10-162.71 12.10ZM-141.74-19.27L-133.83-19.27L-133.83-11.99L-128.78-11.99L-128.78-6.20L-133.83-6.20L-133.83 8.57Q-133.83 10.21-133.21 10.92Q-132.58 11.63-130.80 11.63L-130.80 11.63Q-129.49 11.63-128.47 11.44L-128.47 11.44L-128.47 17.43Q-130.80 18.14-133.26 18.14L-133.26 18.14Q-141.57 18.14-141.74 9.74L-141.74 9.74L-141.74-6.20L-146.06-6.20L-146.06-11.99L-141.74-11.99L-141.74-19.27ZM-110.76 18.14L-110.76 18.14Q-117.26 18.14-121.35 14.15Q-125.44 10.15-125.44 3.51L-125.44 3.51L-125.44 2.74Q-125.44-1.71-123.72-5.23Q-121.99-8.74-118.84-10.64Q-115.68-12.54-111.63-12.54L-111.63-12.54Q-105.56-12.54-102.07-8.71Q-98.59-4.88-98.59 2.14L-98.59 2.14L-98.59 5.37L-117.43 5.37Q-117.04 8.27-115.12 10.02Q-113.19 11.77-110.24 11.77L-110.24 11.77Q-105.67 11.77-103.10 8.46L-103.10 8.46L-99.22 12.81Q-100.99 15.32-104.03 16.73Q-107.06 18.14-110.76 18.14ZM-111.66-6.14L-111.66-6.14Q-114.01-6.14-115.47-4.56Q-116.94-2.97-117.35-0.02L-117.35-0.02L-106.35-0.02L-106.35-0.65Q-106.41-3.27-107.78-4.71Q-109.14-6.14-111.66-6.14ZM-55.17-22.22L-48.63 6.11L-43.27-22.22L-35.10-22.22L-43.93 17.59L-52.19 17.59L-58.67-9.04L-65.15 17.59L-73.40 17.59L-82.24-22.22L-74.06-22.22L-68.67 6.05L-62.11-22.22L-55.17-22.22ZM-18.42 18.14L-18.42 18.14Q-24.92 18.14-29.01 14.15Q-33.10 10.15-33.10 3.51L-33.10 3.51L-33.10 2.74Q-33.10-1.71-31.38-5.23Q-29.65-8.74-26.50-10.64Q-23.34-12.54-19.29-12.54L-19.29-12.54Q-13.22-12.54-9.73-8.71Q-6.25-4.88-6.25 2.14L-6.25 2.14L-6.25 5.37L-25.09 5.37Q-24.71 8.27-22.78 10.02Q-20.85 11.77-17.90 11.77L-17.90 11.77Q-13.33 11.77-10.76 8.46L-10.76 8.46L-6.88 12.81Q-8.65 15.32-11.69 16.73Q-14.72 18.14-18.42 18.14ZM-19.32-6.14L-19.32-6.14Q-21.67-6.14-23.13-4.56Q-24.60-2.97-25.01-0.02L-25.01-0.02L-14.01-0.02L-14.01-0.65Q-14.07-3.27-15.44-4.71Q-16.80-6.14-19.32-6.14ZM24.90 2.63L24.90 3.07Q24.90 10.18 21.86 14.16Q18.83 18.14 13.38 18.14L13.38 18.14Q8.57 18.14 5.70 14.45L5.70 14.45L5.35 17.59L-1.76 17.59L-1.76-24.41L6.14-24.41L6.14-9.34Q8.87-12.54 13.33-12.54L13.33-12.54Q18.74-12.54 21.82-8.56Q24.90-4.58 24.90 2.63L24.90 2.63ZM16.99 2.50L16.99 2.50Q16.99-1.99 15.57-4.05Q14.15-6.12 11.33-6.12L11.33-6.12Q7.56-6.12 6.14-3.03L6.14-3.03L6.14 8.65Q7.59 11.77 11.39 11.77L11.39 11.77Q15.22 11.77 16.42 7.99L16.42 7.99Q16.99 6.19 16.99 2.50ZM59.71 17.59L44.23 17.59L44.23-22.22L58.17-22.22Q65.42-22.22 69.17-19.45Q72.91-16.67 72.91-11.31L72.91-11.31Q72.91-8.38 71.41-6.16Q69.90-3.93 67.22-2.89L67.22-2.89Q70.29-2.12 72.05 0.20Q73.81 2.53 73.81 5.89L73.81 5.89Q73.81 11.63 70.15 14.58Q66.49 17.54 59.71 17.59L59.71 17.59ZM59.95 0.26L52.43 0.26L52.43 11.00L59.46 11.00Q62.36 11.00 63.98 9.62Q65.61 8.24 65.61 5.81L65.61 5.81Q65.61 0.34 59.95 0.26L59.95 0.26ZM52.43-15.58L52.43-5.54L58.50-5.54Q64.71-5.65 64.71-10.49L64.71-10.49Q64.71-13.20 63.14-14.39Q61.56-15.58 58.17-15.58L58.17-15.58L52.43-15.58ZM96.18-12.19L96.07-4.58Q94.46-4.80 93.23-4.80L93.23-4.80Q88.74-4.80 87.35-1.77L87.35-1.77L87.35 17.59L79.45 17.59L79.45-11.99L86.91-11.99L87.13-8.47Q89.51-12.54 93.72-12.54L93.72-12.54Q95.03-12.54 96.18-12.19L96.18-12.19ZM97.66 2.88L97.66 2.53Q97.66-1.88 99.35-5.32Q101.05-8.77 104.23-10.65Q107.42-12.54 111.63-12.54L111.63-12.54Q117.62-12.54 121.41-8.88Q125.19-5.21 125.63 1.08L125.63 1.08L125.69 3.10Q125.69 9.91 121.88 14.02Q118.08 18.14 111.69 18.14Q105.29 18.14 101.47 14.04Q97.66 9.94 97.66 2.88L97.66 2.88ZM105.56 3.10L105.56 3.10Q105.56 7.31 107.15 9.54Q108.73 11.77 111.69 11.77L111.69 11.77Q114.56 11.77 116.17 9.57Q117.78 7.37 117.78 2.53L117.78 2.53Q117.78-1.60 116.17-3.87Q114.56-6.14 111.63-6.14L111.63-6.14Q108.73-6.14 107.15-3.89Q105.56-1.63 105.56 3.10ZM150.90-11.99L156.28 6.85L160.17-11.99L167.79-11.99L160.25 17.59L153.63 17.59L148.03-1.03L142.42 17.59L135.83 17.59L128.28-11.99L135.91-11.99L139.77 6.82L145.18-11.99L150.90-11.99ZM187.73 9.42L187.73 9.42Q187.73 7.97 186.29 7.13Q184.86 6.30 181.69 5.64L181.69 5.64Q171.13 3.43 171.13-3.33L171.13-3.33Q171.13-7.26 174.40-9.90Q177.67-12.54 182.94-12.54L182.94-12.54Q188.58-12.54 191.95-9.89Q195.33-7.24 195.33-3.00L195.33-3.00L187.43-3.00Q187.43-4.69 186.33-5.80Q185.24-6.91 182.92-6.91L182.92-6.91Q180.92-6.91 179.83-6.01Q178.73-5.10 178.73-3.71L178.73-3.71Q178.73-2.40 179.98-1.59Q181.22-0.78 184.17-0.20Q187.13 0.39 189.15 1.13L189.15 1.13Q195.41 3.43 195.41 9.09L195.41 9.09Q195.41 13.13 191.94 15.64Q188.47 18.14 182.97 18.14L182.97 18.14Q179.25 18.14 176.37 16.81Q173.48 15.49 171.84 13.18Q170.20 10.87 170.20 8.19L170.20 8.19L177.69 8.19Q177.80 10.29 179.25 11.41Q180.70 12.53 183.13 12.53L183.13 12.53Q185.40 12.53 186.57 11.67Q187.73 10.81 187.73 9.42ZM208.84-11.99L208.84 17.59L200.91 17.59L200.91-11.99L208.84-11.99ZM200.44-19.65L200.44-19.65Q200.44-21.43 201.63-22.58Q202.82-23.72 204.87-23.72L204.87-23.72Q206.90-23.72 208.10-22.58Q209.30-21.43 209.30-19.65L209.30-19.65Q209.30-17.85 208.09-16.70Q206.87-15.55 204.87-15.55Q202.88-15.55 201.66-16.70Q200.44-17.85 200.44-19.65ZM215.18-11.99L222.62-11.99L222.87-8.58Q226.04-12.54 231.37-12.54L231.37-12.54Q236.07-12.54 238.37-9.78Q240.67-7.02 240.72-1.52L240.72-1.52L240.72 17.59L232.82 17.59L232.82-1.33Q232.82-3.85 231.72-4.98Q230.63-6.12 228.09-6.12L228.09-6.12Q224.75-6.12 223.08-3.27L223.08-3.27L223.08 17.59L215.18 17.59L215.18-11.99ZM245.56 2.91L245.56 2.58Q245.56-4.23 248.80-8.38Q252.04-12.54 257.54-12.54L257.54-12.54Q262.40-12.54 265.11-9.21L265.11-9.21L265.44-11.99L272.60-11.99L272.60 16.61Q272.60 20.49 270.84 23.36Q269.08 26.23 265.88 27.74Q262.68 29.24 258.38 29.24L258.38 29.24Q255.13 29.24 252.04 27.94Q248.95 26.64 247.37 24.59L247.37 24.59L250.87 19.78Q253.82 23.09 258.03 23.09L258.03 23.09Q261.17 23.09 262.92 21.41Q264.67 19.72 264.67 16.63L264.67 16.63L264.67 15.05Q261.94 18.14 257.48 18.14L257.48 18.14Q252.15 18.14 248.86 13.97Q245.56 9.80 245.56 2.91L245.56 2.91ZM253.46 3.15L253.46 3.15Q253.46 7.17 255.08 9.46Q256.69 11.74 259.51 11.74L259.51 11.74Q263.12 11.74 264.67 9.03L264.67 9.03L264.67-3.41Q263.09-6.12 259.56-6.12L259.56-6.12Q256.72-6.12 255.09-3.79Q253.46-1.47 253.46 3.15Z"/></g>
</svg>